<?xml version="1.0" encoding="utf-8"?>
<!-- Generator: Adobe Illustrator 24.1.2, SVG Export Plug-In . SVG Version: 6.00 Build 0)  -->
<svg version="1.1" id="Capa_1" xmlns="http://www.w3.org/2000/svg" xmlns:xlink="http://www.w3.org/1999/xlink" x="0px" y="0px"
	 viewBox="0 0 1000 1000" style="enable-background:new 0 0 1000 1000;" xml:space="preserve">
<style type="text/css">
	.st0{clip-path:url(#SVGID_2_);}
	.st1{clip-path:url(#SVGID_6_);}
	.st2{clip-path:url(#SVGID_10_);}
	.st3{fill:#FFFFFF;}
	.st4{fill:url(#SVGID_13_);}
	.st5{fill:url(#SVGID_14_);}
	.st6{fill:url(#SVGID_15_);}
</style>
<linearGradient id="SVGID_2_" gradientUnits="userSpaceOnUse" x1="294.2897" y1="500" x2="709.8674" y2="500">
	<stop  offset="0" style="stop-color:#FF9C61"/>
	<stop  offset="0.5105" style="stop-color:#FE889C"/>
	<stop  offset="1" style="stop-color:#DC7CD1"/>
</linearGradient>
<path style="fill:url(#SVGID_2_);" d="M680.99,363.36l-150.04-86.63c-8.77-5.06-18.75-7.74-28.87-7.74s-20.11,2.68-28.87,7.74
	l-150.04,86.63c-17.81,10.28-28.87,29.45-28.87,50.01v173.25c0,20.57,11.06,39.73,28.87,50.01l150.04,86.63
	c8.77,5.06,18.75,7.74,28.87,7.74c10.12,0,20.11-2.68,28.87-7.74l150.04-86.63c17.81-10.28,28.87-29.45,28.87-50.01V413.37
	C709.87,392.81,698.8,373.65,680.99,363.36z M682.33,413.37v73.15l-78.45-135.88l63.35,36.57
	C676.57,392.61,682.33,402.58,682.33,413.37z M669.66,500l-83.79,145.13l-167.59,0L334.49,500l83.79-145.13l167.59,0L669.66,500z
	 M486.97,300.59c4.67-2.7,9.89-4.05,15.1-4.05c5.22,0,10.43,1.35,15.1,4.05l63.35,36.57l-156.9,0L486.97,300.59z M336.93,387.21
	l63.35-36.57l-78.45,135.88v-73.15C321.83,402.58,327.59,392.61,336.93,387.21z M321.83,586.63v-73.15l78.45,135.88l-63.35-36.57
	C327.59,607.39,321.83,597.42,321.83,586.63z M517.18,699.41c-4.67,2.7-9.89,4.05-15.1,4.05c-5.21,0-10.43-1.35-15.1-4.05
	l-63.35-36.57l156.9,0L517.18,699.41z M667.22,612.79l-63.35,36.57l78.45-135.88v73.15C682.33,597.42,676.57,607.39,667.22,612.79z"
	/>
</svg>
